<?xml version="1.0" encoding="UTF-8"?>
<svg width="200px" height="200px" viewBox="0 0 200 200" version="1.1" xmlns="http://www.w3.org/2000/svg" xmlns:xlink="http://www.w3.org/1999/xlink">
    <!-- Generator: Sketch 49.3 (51167) - http://www.bohemiancoding.com/sketch -->
    <title>defaul-profil</title>
    <desc>Created with Sketch.</desc>
    <defs></defs>
    <g id="icons_superprof" stroke="none" stroke-width="1" fill="none" fill-rule="evenodd">
        <g id="defaul-profil">
            <rect id="Rectangle-2" fill="#FFFFFF" x="0" y="0" width="200" height="200"></rect>
            <path d="M50.4347826,178.26087 C77.826087,173.478261 73.9130435,164.347826 73.9130435,159.130435 L73.9130435,155.652174 C67.3913043,150 66.5217391,141.304348 63.9130435,131.304348 C55.6521739,131.304348 53.4782609,113.913043 53.4782609,111.304348 C53.4782609,108.695652 53.0434783,98.2608696 61.7391304,98.2608696 C56.0869565,76.0869565 57.3913043,54.3478261 72.6086957,54.3478261 C109.130435,29.1304348 157.391304,48.6956522 139.130435,98.2608696 C147.391304,98.2608696 147.391304,108.695652 147.391304,111.304348 C147.391304,113.913043 145.652174,131.304348 136.956522,131.304348 C134.347826,141.304348 133.043478,149.565217 126.521739,155.652174 L126.521739,158.695652 C126.521739,164.347826 122.608696,172.608696 150,177.826087 C162.426092,180.268636 172.932116,188.511823 178.26087,200 L200,200 L200,0 L0,0 L0,200 L21.7391304,200 C27.1459169,188.47442 37.8758821,180.345659 50.4347826,178.26087 Z" id="Shape" fill="#BFBFBF" fill-rule="nonzero"></path>
        </g>
    </g>
</svg>