<svg xmlns="http://www.w3.org/2000/svg" width="16" height="16" viewBox="0 0 16 16">
    <path fill="#FFF" fill-rule="evenodd" d="M1.18 0h13.636C15.47 0 16 .516 16 1.154v13.692c0 .637-.531 1.154-1.184 1.154H1.18C.529 16 0 15.483 0 14.846V1.154C0 .516.529 0 1.18 0zm2.38 2.203a1.376 1.376 0 1 0-.003 2.75 1.376 1.376 0 0 0 .002-2.75zM2.37 13.634h2.376V5.998H2.371v7.636zm3.865-7.636v7.636h2.37V9.858c0-.997.189-1.962 1.424-1.962 1.218 0 1.233 1.14 1.233 2.025v3.713h2.373V9.446c0-2.056-.444-3.637-2.848-3.637-1.154 0-1.928.633-2.245 1.233H8.51V5.998H6.235z"/>
</svg>
