<?xml version="1.0" encoding="UTF-8"?>
<svg width="13px" height="16px" viewBox="0 0 13 16" version="1.1" xmlns="http://www.w3.org/2000/svg" xmlns:xlink="http://www.w3.org/1999/xlink">
    <!-- Generator: Sketch 47.1 (45422) - http://www.bohemiancoding.com/sketch -->
    <title>localisation</title>
    <desc>Created with Sketch.</desc>
    <defs></defs>
    <g id="Annonce" stroke="none" stroke-width="1" fill="none" fill-rule="evenodd">
        <g id="Annonce---Desktop---NEW-MOUSE-OVER-SHARE" transform="translate(-668.000000, -7280.000000)" fill="#393939">
            <g id="Profs-similaires" transform="translate(155.000000, 7065.000000)">
                <g id="1-copy" transform="translate(395.000000, 164.000000)">
                    <g id="Adresse" transform="translate(118.000000, 50.000000)">
                        <path d="M6.45638257,10.0329519 C5.06563826,10.0329519 3.93860393,8.90946039 3.93860393,7.52385419 C3.93860393,6.13724755 5.06563826,5.01475646 6.45638257,5.01475646 C7.84612418,5.01475646 8.9731585,6.13724755 8.9731585,7.52385419 C8.9731585,8.90946039 7.84612418,10.0329519 6.45638257,10.0329519 M6.50050135,1 C2.91083687,1 0,3.90026887 0,7.47883449 C0,11.0574001 6.69301967,17 6.69301967,17 C6.69301967,17 13,11.0574001 13,7.47883449 C13,3.90026887 10.0901658,1 6.50050135,1" id="localisation"></path>
                    </g>
                </g>
            </g>
        </g>
    </g>
</svg>