<svg xmlns="http://www.w3.org/2000/svg" width="16" height="16" viewBox="0 0 16 16">
    <path fill="#FFF" fill-rule="evenodd" d="M15.933 5.81c.045.138.066.263.066.384v7.597c0 .673-.539 1.22-1.202 1.22H1.203a1.18 1.18 0 0 1-.476-.101l14.417-8.902a.163.163 0 0 0 .066-.19l-.016-.016c-.023-.024-.042-.051-.069-.07l-.029-.021-2.452-1.795.459-.466 2.398 1.755c.201.147.35.357.432.606zM.807 5.803l7.026 4.339-7.407 4.573A1.22 1.22 0 0 1 0 13.791V6.194c0-.121.022-.246.067-.383V5.81c.082-.249.231-.458.432-.605L7.297.231c.42-.308.986-.308 1.406 0l2.481 1.815-.459.465L8.328.758a.557.557 0 0 0-.657 0L.874 5.732c-.026.019-.046.046-.067.07zm5.485-1.91l1.763 1.787 4.605-4.671a.157.157 0 0 1 .227 0l.972.986a.164.164 0 0 1 0 .23L8.17 7.996a.16.16 0 0 1-.228 0l-2.847-2.89a.157.157 0 0 1-.047-.113c0-.044.016-.085.047-.116l.971-.985a.16.16 0 0 1 .227 0z"/>
</svg>
