<svg xmlns="http://www.w3.org/2000/svg" width="40" height="40" viewBox="0 0 40 40">
    <path fill="#FFF" fill-rule="evenodd" d="M27.484 21a2.48 2.48 0 0 1-2.482-2.597c.055-1.334 1.184-2.413 2.515-2.403a2.504 2.504 0 0 1 2.481 2.616c-.05 1.357-1.137 2.388-2.514 2.384m-7 0a2.48 2.48 0 0 1-2.482-2.597c.054-1.334 1.184-2.413 2.515-2.403a2.505 2.505 0 0 1 2.481 2.616c-.05 1.357-1.138 2.388-2.514 2.384m-8 0a2.482 2.482 0 0 1-2.482-2.597c.055-1.334 1.185-2.413 2.516-2.403a2.504 2.504 0 0 1 2.48 2.616c-.05 1.357-1.137 2.388-2.513 2.384M36.344 8.82C30.113.467 17.15-1.54 8.314 4.48-1.63 11.256-2.858 23.93 5.736 32.196c4.519 4.346 10 6.12 16.118 5.468 2.008-.213 4.026-1.365 5.945-1.157 1.927.21 3.737 1.581 5.71 2.494-.131-.544-.157-1.09-.384-1.523-1.233-2.336-.542-3.794 1.379-5.566 6.638-6.124 7.277-15.8 1.84-23.09"/>
</svg>
