<svg width="93" height="22" viewBox="0 0 93 22" fill="none" xmlns="http://www.w3.org/2000/svg">
  <path d="M24.4432 7.15121L33.8517 7.1512L33.8517 8.91558L30.1472 8.91558L30.1472 18.8617L28.1167 18.8617L28.1167 8.91558L24.4277 8.91559L24.4432 7.15121ZM33.4487 10.3833L35.1846 10.3833L35.1846 12.0228L35.2156 12.0228C35.2776 11.7886 35.3861 11.57 35.5411 11.3514C35.6961 11.1328 35.8821 10.9298 36.1146 10.758C36.3316 10.5707 36.5796 10.4301 36.8586 10.3208C37.1221 10.2115 37.4011 10.1491 37.6801 10.1491C37.8971 10.1491 38.0521 10.1647 38.1296 10.1647C38.2071 10.1803 38.3001 10.1959 38.3776 10.1959L38.3776 11.9915C38.2536 11.9603 38.1141 11.9447 37.9746 11.9291C37.8351 11.9135 37.7111 11.8979 37.5716 11.8979C37.2616 11.8979 36.9671 11.9603 36.6881 12.0852C36.4091 12.2101 36.1766 12.3975 35.9596 12.6317C35.7581 12.8815 35.5876 13.1782 35.4636 13.5373C35.3396 13.8964 35.2776 14.318 35.2776 14.7864L35.2776 18.8149L33.4177 18.8149L33.4487 10.3833ZM46.9025 18.8617L45.0736 18.8617L45.0736 17.675L45.0426 17.675C44.8101 18.1122 44.4691 18.4401 44.0196 18.7056C43.5701 18.971 43.1051 19.0959 42.6401 19.0959C41.5396 19.0959 40.7336 18.8305 40.2376 18.2684C39.7416 17.7219 39.4936 16.8787 39.4936 15.7701L39.4936 10.3833L41.3536 10.3833L41.3536 15.5828C41.3536 16.3322 41.4931 16.8631 41.7876 17.1598C42.0666 17.472 42.4696 17.6282 42.9811 17.6282C43.3686 17.6282 43.6941 17.5657 43.9576 17.4408C44.2211 17.3159 44.4381 17.1598 44.5931 16.9568C44.7636 16.7538 44.8721 16.504 44.9496 16.2229C45.0271 15.9419 45.0581 15.6296 45.0581 15.3017L45.0581 10.3833L46.918 10.3833L46.918 18.8617L46.9025 18.8617ZM50.0645 16.1448C50.1265 16.6913 50.328 17.0661 50.6845 17.3003C51.041 17.5189 51.475 17.6282 51.971 17.6282C52.1415 17.6282 52.343 17.6126 52.56 17.5813C52.777 17.5501 52.994 17.5033 53.18 17.4252C53.3815 17.3471 53.5365 17.2378 53.6605 17.0817C53.7845 16.9255 53.8465 16.7382 53.831 16.504C53.8155 16.2698 53.738 16.0668 53.5675 15.9106C53.397 15.7545 53.1955 15.6452 52.9475 15.5359C52.6995 15.4422 52.405 15.3641 52.0795 15.3017C51.754 15.2392 51.4285 15.1612 51.0875 15.0831C50.7465 15.005 50.4055 14.9113 50.08 14.802C49.7545 14.6927 49.4755 14.5522 49.212 14.3492C48.964 14.1619 48.747 13.9277 48.6075 13.631C48.4525 13.3343 48.375 12.9908 48.375 12.5536C48.375 12.0852 48.4835 11.7105 48.716 11.3982C48.933 11.0859 49.2275 10.8361 49.5685 10.6487C49.9095 10.4613 50.297 10.3208 50.7155 10.2427C51.134 10.1647 51.537 10.1334 51.909 10.1334C52.343 10.1334 52.7615 10.1803 53.149 10.274C53.5365 10.3677 53.9085 10.5082 54.2185 10.7268C54.544 10.9298 54.8075 11.2108 55.009 11.5387C55.226 11.8666 55.35 12.2726 55.412 12.741L53.4745 12.741C53.3815 12.2882 53.18 11.9915 52.87 11.8354C52.5445 11.6792 52.188 11.6012 51.7695 11.6012C51.6455 11.6012 51.475 11.6168 51.3045 11.6324C51.1185 11.6636 50.9635 11.6949 50.793 11.7573C50.638 11.8198 50.4985 11.9134 50.39 12.0227C50.2815 12.132 50.2195 12.2882 50.2195 12.4756C50.2195 12.7098 50.297 12.8815 50.452 13.022C50.607 13.1626 50.8085 13.2719 51.072 13.3812C51.32 13.4748 51.6145 13.5529 51.94 13.6154C52.2655 13.6778 52.6065 13.7559 52.9475 13.834C53.2885 13.912 53.614 14.0057 53.9395 14.115C54.265 14.2243 54.5595 14.3648 54.8075 14.5678C55.0555 14.7552 55.2725 14.9894 55.4275 15.2705C55.5825 15.5515 55.66 15.9106 55.66 16.3166C55.66 16.8162 55.5515 17.2378 55.319 17.5969C55.0865 17.9405 54.792 18.2371 54.4355 18.4557C54.079 18.6743 53.6605 18.8305 53.2265 18.9398C52.777 19.0334 52.343 19.0959 51.909 19.0959C51.382 19.0959 50.886 19.0334 50.4365 18.9085C49.987 18.7836 49.584 18.5962 49.2585 18.362C48.933 18.1122 48.6695 17.8155 48.4835 17.4408C48.2975 17.0817 48.189 16.6445 48.1735 16.1292L50.049 16.1292L50.049 16.1448L50.0645 16.1448ZM56.187 10.3833L57.5975 10.3833L57.5975 7.82257L59.4574 7.82257L59.4574 10.3676L61.1314 10.3676L61.1314 11.7573L59.4574 11.7573L59.4574 16.2854C59.4574 16.4883 59.4729 16.6445 59.4884 16.8006C59.5039 16.9411 59.5504 17.0661 59.5969 17.1597C59.6589 17.2534 59.7519 17.3315 59.8604 17.3783C59.9844 17.4252 60.1394 17.4564 60.3564 17.4564C60.4804 17.4564 60.6199 17.4564 60.7439 17.4408C60.8679 17.4252 61.0074 17.4096 61.1314 17.3783L61.1314 18.8304C60.9299 18.8617 60.7284 18.8773 60.5269 18.8929C60.3254 18.9241 60.1394 18.9241 59.9224 18.9241C59.4264 18.9241 59.0389 18.8773 58.7444 18.7836C58.4499 18.6899 58.2174 18.5494 58.0469 18.3776C57.8764 18.1903 57.7679 17.9717 57.7059 17.7062C57.6439 17.4408 57.6129 17.1129 57.5975 16.7694L57.5975 11.7729L56.187 11.7729L56.187 10.352L56.187 10.3833ZM62.4334 10.3833L64.1849 10.3833L64.1849 11.5387L64.2159 11.5387C64.4794 11.039 64.8359 10.6955 65.3009 10.4769C65.7659 10.2583 66.2619 10.149 66.8199 10.149C67.4864 10.149 68.0599 10.2583 68.5559 10.5082C69.0518 10.7424 69.4548 11.0547 69.7803 11.4762C70.1058 11.8822 70.3538 12.3662 70.5088 12.9127C70.6638 13.4592 70.7568 14.0525 70.7568 14.6615C70.7568 15.2392 70.6793 15.7857 70.5398 16.3166C70.3848 16.8475 70.1678 17.3315 69.8733 17.7375C69.5788 18.1434 69.2069 18.4713 68.7419 18.7211C68.2769 18.971 67.7499 19.0959 67.1299 19.0959C66.8664 19.0959 66.5874 19.0646 66.3239 19.0178C66.0604 18.971 65.7969 18.8929 65.5489 18.7836C65.3009 18.6743 65.0684 18.5338 64.8669 18.362C64.6499 18.1903 64.4794 17.9873 64.3399 17.7687L64.3089 17.7687L64.3089 22.0001L62.4489 22.0001L62.4489 10.3833L62.4334 10.3833ZM68.9279 14.6303C68.9279 14.2555 68.8814 13.8808 68.7729 13.5217C68.6799 13.1625 68.5249 12.8503 68.3234 12.5692C68.1219 12.2882 67.8739 12.0696 67.5949 11.8978C67.3004 11.7261 66.9594 11.648 66.5874 11.648C65.8124 11.648 65.2234 11.9134 64.8204 12.4599C64.4329 13.0064 64.2314 13.7403 64.2314 14.6459C64.2314 15.0831 64.2779 15.4734 64.3864 15.8325C64.4949 16.1917 64.6344 16.5039 64.8514 16.7694C65.0529 17.0348 65.3009 17.2378 65.5954 17.3939C65.8899 17.5501 66.2154 17.6282 66.6029 17.6282C67.0369 17.6282 67.3779 17.5345 67.6724 17.3627C67.9669 17.191 68.1994 16.9568 68.4009 16.6913C68.5869 16.4103 68.7264 16.098 68.8039 15.7389C68.8814 15.3641 68.9279 15.005 68.9279 14.6303ZM72.1983 7.15115L74.0583 7.15115L74.0583 8.91553L72.1983 8.91553L72.1983 7.15115ZM72.1983 10.3832L74.0583 10.3832L74.0583 18.8617L72.1983 18.8617L72.1983 10.3832ZM75.7168 7.15115L77.5768 7.15115L77.5768 18.8617L75.7168 18.8617L75.7168 7.15115ZM83.2497 19.0959C82.5832 19.0959 81.9787 18.9866 81.4517 18.7523C80.9248 18.5181 80.4908 18.2215 80.1188 17.8311C79.7623 17.4408 79.4833 16.9567 79.2973 16.4103C79.1113 15.8638 79.0028 15.2548 79.0028 14.6146C79.0028 13.9745 79.0958 13.3811 79.2973 12.8346C79.4833 12.2882 79.7623 11.8197 80.1188 11.4138C80.4753 11.0234 80.9248 10.7111 81.4517 10.4925C81.9787 10.2739 82.5832 10.149 83.2497 10.149C83.9162 10.149 84.5207 10.2583 85.0477 10.4925C85.5747 10.7111 86.0087 11.0234 86.3807 11.4138C86.7372 11.8041 87.0162 12.2881 87.2022 12.8346C87.3882 13.3811 87.4967 13.9745 87.4967 14.6146C87.4967 15.2704 87.4037 15.8638 87.2022 16.4102C87.0007 16.9567 86.7372 17.4252 86.3807 17.8311C86.0242 18.2215 85.5747 18.5337 85.0477 18.7523C84.5207 18.9709 83.9317 19.0959 83.2497 19.0959ZM83.2497 17.6125C83.6527 17.6125 84.0247 17.5188 84.3192 17.3471C84.6292 17.1753 84.8617 16.9411 85.0632 16.6601C85.2647 16.379 85.4042 16.0511 85.4972 15.7076C85.5902 15.3485 85.6367 14.9894 85.6367 14.6146C85.6367 14.2555 85.5902 13.8964 85.4972 13.5373C85.4042 13.1781 85.2647 12.8659 85.0632 12.5848C84.8617 12.3038 84.6137 12.0852 84.3192 11.9134C84.0092 11.7417 83.6527 11.648 83.2497 11.648C82.8467 11.648 82.4747 11.7417 82.1802 11.9134C81.8702 12.0852 81.6377 12.3194 81.4362 12.5848C81.2348 12.8659 81.0952 13.1781 81.0022 13.5373C80.9092 13.8964 80.8628 14.2555 80.8628 14.6146C80.8628 14.9894 80.9092 15.3485 81.0022 15.7076C81.0952 16.0667 81.2348 16.379 81.4362 16.6601C81.6377 16.9411 81.8857 17.1753 82.1802 17.3471C82.4902 17.5345 82.8467 17.6125 83.2497 17.6125ZM88.0547 10.3832L89.4652 10.3832L89.4652 7.82253L91.3252 7.82253L91.3252 10.3676L92.9991 10.3676L92.9991 11.7573L91.3252 11.7573L91.3252 16.2853C91.3252 16.4883 91.3407 16.6444 91.3562 16.8006C91.3717 16.9411 91.4182 17.066 91.4647 17.1597C91.5267 17.2534 91.6197 17.3315 91.7282 17.3783C91.8522 17.4251 92.0072 17.4564 92.2242 17.4564C92.3482 17.4564 92.4876 17.4564 92.6116 17.4408C92.7356 17.4251 92.8751 17.4095 92.9991 17.3783L92.9991 18.8304C92.7976 18.8616 92.5961 18.8772 92.3946 18.8929C92.1932 18.9241 92.0072 18.9241 91.7902 18.9241C91.2942 18.9241 90.9067 18.8773 90.6122 18.7836C90.3177 18.6899 90.0852 18.5494 89.9147 18.3776C89.7442 18.1902 89.6357 17.9716 89.5737 17.7062C89.5117 17.4408 89.4807 17.1129 89.4652 16.7694L89.4652 11.7729L88.0547 11.7729L88.0547 10.352L88.0547 10.3832Z" fill="#FFFFFF"/>
  <path d="M22.2733 8.15055L13.7639 8.15056L11.1444 4.83226e-05L8.50943 8.15057L5.44961e-08 8.13496L6.88194 13.1783L4.24696 21.3288L11.1289 16.2855L18.0108 21.3288L15.3914 13.1783L22.2733 8.15055Z" fill="#00B67A"/>
  <path d="M15.9824 15.0207L15.3934 13.1783L11.1465 16.2854L15.9824 15.0207Z" fill="#005128"/>
</svg>
