<?xml version="1.0" encoding="UTF-8"?>
<svg width="60px" height="48px" viewBox="0 0 60 48" version="1.1" xmlns="http://www.w3.org/2000/svg" xmlns:xlink="http://www.w3.org/1999/xlink">
    <!-- Generator: Sketch 49.3 (51167) - http://www.bohemiancoding.com/sketch -->
    <title>twitter-blanc</title>
    <desc>Created with Sketch.</desc>
    <defs></defs>
    <g id="icons_superprof" stroke="none" stroke-width="1" fill="none" fill-rule="evenodd">
        <path d="M58.292,1.06535385 C56.5486667,2.16484103 52.546,3.76254359 50.572,3.76254359 L50.572,3.76582564 C48.318,1.44738462 45.1446667,0 41.6253333,0 C34.79,0 29.2473333,5.45739487 29.2473333,12.1849436 C29.2473333,13.1196718 29.3573333,14.0314256 29.5606667,14.9057641 L29.5586667,14.9057641 C20.2866667,14.6661744 10.146,10.0903385 4.04133333,2.25870769 C0.288,8.65542564 3.536,15.7696 7.79533333,18.3617641 C6.33733333,18.4700718 3.65333333,18.1963487 2.39,16.9826462 C2.30533333,21.2283077 4.37866667,26.8537436 11.9386667,28.8945231 C10.4826667,29.6658051 7.90533333,29.4445949 6.78466667,29.2804923 C7.178,32.8644923 12.2753333,37.5499487 17.8493333,37.5499487 C15.8626667,39.8125949 8.388,43.9164718 0,42.6108718 C5.69666667,46.0235487 12.336,48 19.3633333,48 C39.3333333,48 54.842,32.0643282 54.0073333,12.4054974 C54.004,12.3838359 54.004,12.3621744 54.002,12.3385436 C54.004,12.288 54.0073333,12.2374564 54.0073333,12.1849436 C54.0073333,12.1238974 54.002,12.0661333 54,12.0070564 C55.818,10.7828513 58.2573333,8.61735385 60,5.76722051 C58.9893333,6.31532308 55.9573333,7.41284103 53.136,7.68525128 C54.9466667,6.72295385 57.6293333,3.57152821 58.292,1.06535385" id="twitter-blanc" fill="#FFFFFF"></path>
    </g>
</svg>