<svg xmlns="http://www.w3.org/2000/svg" width="29" height="32" viewBox="0 0 29 32">
    <path fill="#393939" fill-rule="evenodd" d="M14.5 30c-2.901 0-5.625-.723-7.996-1.988-.171.639-.29 1.298-.29 1.988v2h16.571v-2c0-.69-.118-1.35-.289-1.988A16.945 16.945 0 0 1 14.5 30m0-20c-2.288 0-4.142 1.79-4.142 4s1.854 4 4.142 4c2.288 0 4.142-1.79 4.142-4s-1.854-4-4.142-4m0 14C8.79 24 4.143 19.514 4.143 14S8.789 4 14.5 4c5.71 0 10.357 4.486 10.357 10S20.21 24 14.5 24m0-24C6.492 0 0 6.268 0 14s6.492 14 14.5 14S29 21.732 29 14 22.508 0 14.5 0"/>
</svg>
