<svg xmlns="http://www.w3.org/2000/svg" xmlns:xlink="http://www.w3.org/1999/xlink" width="40" height="40" viewBox="0 0 40 40">
    <defs>
        <path id="a" d="M0 40V0h40v40z"/>
    </defs>
    <g fill="none" fill-rule="evenodd">
        <mask id="b" fill="#fff">
            <use xlink:href="#a"/>
        </mask>
        <path fill="#FFF" d="M29.164 23.97c-.498-.248-2.944-1.446-3.4-1.611-.456-.166-.788-.248-1.12.248-.332.495-1.286 1.61-1.576 1.94-.291.332-.581.373-1.078.126-.498-.25-2.101-.771-4.002-2.46-1.48-1.312-2.478-2.933-2.768-3.43-.29-.495-.032-.763.217-1.01.225-.222.498-.578.748-.868.249-.29.33-.496.497-.827.166-.33.083-.618-.041-.866-.125-.248-1.121-2.687-1.535-3.678-.404-.966-.814-.835-1.12-.851-.29-.014-.622-.017-.953-.017-.332 0-.871.124-1.327.62-.456.496-1.742 1.695-1.742 4.132 0 2.437 1.783 4.792 2.032 5.123.249.33 3.509 5.332 8.5 7.478 1.189.51 2.115.816 2.838 1.043 1.192.377 2.277.325 3.135.196.956-.142 2.944-1.197 3.358-2.355.415-1.156.415-2.147.29-2.355-.124-.206-.456-.33-.953-.578m-9.08 12.338h-.007a16.585 16.585 0 0 1-8.425-2.296l-.604-.356-6.266 1.635 1.672-6.08-.394-.623a16.38 16.38 0 0 1-2.53-8.767c.003-9.084 7.43-16.474 16.56-16.474a16.488 16.488 0 0 1 11.704 4.83 16.34 16.34 0 0 1 4.844 11.657c-.004 9.085-7.43 16.474-16.554 16.474M34.173 5.813C30.412 2.066 25.412.002 20.083 0 9.107 0 .173 8.89.168 19.819a19.721 19.721 0 0 0 2.659 9.91L0 39.999l10.559-2.755a19.955 19.955 0 0 0 9.517 2.412h.008s-.001 0 0 0c10.976 0 19.912-8.892 19.916-19.82.002-5.297-2.067-10.277-5.827-14.023" mask="url(#b)"/>
    </g>
</svg>
