<?xml version="1.0" encoding="UTF-8"?>
<svg width="30px" height="32px" viewBox="0 0 30 32" version="1.1" xmlns="http://www.w3.org/2000/svg" xmlns:xlink="http://www.w3.org/1999/xlink">
    <!-- Generator: Sketch 47.1 (45422) - http://www.bohemiancoding.com/sketch -->
    <title>sp_depuis</title>
    <desc>Created with Sketch.</desc>
    <defs></defs>
    <g id="Annonce" stroke="none" stroke-width="1" fill="none" fill-rule="evenodd">
        <path d="M15,6.11969622 C12.2834041,6.15477294 10.1060162,8.39833556 10.1291259,11.138605 C10.1522356,13.8788744 12.3671472,16.0847502 15.0839416,16.0732073 C17.800736,16.0616645 19.9971459,13.8370463 19.9973684,11.0966777 C19.9890197,9.76824389 19.4578161,8.49756755 18.5206219,7.56419668 C17.5834277,6.63082581 16.3170172,6.11122144 15,6.11969622 Z M24,20.0552444 C21.1184211,23.917382 16.0026316,24.0368296 16.0026316,24.0368296 L24,32 L24,26.0276222 L30,26.0276222 L24,20.0552444 Z M0,25.97188 L6,26.0276222 L6.05526316,32 L13.9973684,24.0368296 C9.58421053,23.6227447 6,20.0552444 6,20.0552444 L0,25.97188 Z M25.9973684,11.0966777 C25.9973683,4.9681518 21.0719115,3.75738043e-16 14.9960526,0 C8.92019378,-3.53635805e-16 3.99473697,4.9681518 3.99473684,11.0966777 C3.99473697,17.2252036 8.92019378,22.1933554 14.9960526,22.1933554 C21.0719115,22.1933554 25.9973683,17.2252036 25.9973684,11.0966777 Z M15,18.0644518 C11.1604519,18.0865285 8.02777914,14.9694494 7.99736842,11.0966777 C8.12413408,7.29015769 11.2201164,4.27047563 14.9960526,4.27047563 C18.7719888,4.27047563 21.8679712,7.29015769 21.9947368,11.0966777 C21.9643283,14.9663254 18.8364734,18.0821233 15,18.0644518 Z" id="sp_depuis" fill="#393939" fill-rule="nonzero"></path>
    </g>
</svg>