<svg width="40" height="40" viewBox="0 0 40 40" fill="none" xmlns="http://www.w3.org/2000/svg">
<rect width="40" height="40" rx="20" fill="white" fill-opacity="0.1"/>
<path d="M23.3334 13.334H16.6667C14.8258 13.334 13.3334 14.8264 13.3334 16.6673V23.334C13.3334 25.1749 14.8258 26.6673 16.6667 26.6673H23.3334C25.1743 26.6673 26.6667 25.1749 26.6667 23.334V16.6673C26.6667 14.8264 25.1743 13.334 23.3334 13.334Z" stroke="white" stroke-width="1.33333" stroke-linecap="round" stroke-linejoin="round"/>
<path d="M22.6667 19.5802C22.7489 20.135 22.6542 20.7017 22.3958 21.1995C22.1375 21.6974 21.7288 22.1011 21.2278 22.3533C20.7267 22.6055 20.159 22.6933 19.6052 22.6042C19.0514 22.515 18.5398 22.2536 18.1432 21.857C17.7466 21.4604 17.4852 20.9488 17.3961 20.395C17.3069 19.8412 17.3947 19.2735 17.6469 18.7725C17.8991 18.2714 18.3028 17.8627 18.8007 17.6044C19.2985 17.346 19.8652 17.2513 20.42 17.3335C20.986 17.4175 21.5099 17.6812 21.9145 18.0857C22.319 18.4903 22.5828 19.0143 22.6667 19.5802Z" stroke="white" stroke-width="1.33333" stroke-linecap="round" stroke-linejoin="round"/>
<path d="M23.6666 16.334H23.6733" stroke="white" stroke-width="1.33333" stroke-linecap="round" stroke-linejoin="round"/>
</svg>