<svg width="40" height="40" viewBox="0 0 40 40" fill="none" xmlns="http://www.w3.org/2000/svg">
<rect width="40" height="40" rx="20" fill="white" fill-opacity="0.1"/>
<path d="M27.3333 15.0008C26.6949 15.4512 25.988 15.7956 25.24 16.0208C24.8385 15.5592 24.3048 15.232 23.7113 15.0835C23.1178 14.935 22.493 14.9723 21.9213 15.1905C21.3497 15.4087 20.8589 15.7971 20.5153 16.3033C20.1716 16.8095 19.9918 17.4091 20 18.0208V18.6875C18.8284 18.7179 17.6675 18.4581 16.6206 17.9311C15.5738 17.4042 14.6735 16.6266 14 15.6675C14 15.6675 11.3333 21.6675 17.3333 24.3342C15.9603 25.2662 14.3247 25.7335 12.6666 25.6675C18.6666 29.0008 26 25.6675 26 18.0008C25.9993 17.8151 25.9815 17.6299 25.9466 17.4475C26.627 16.7765 27.1072 15.9293 27.3333 15.0008V15.0008Z" fill="white" stroke="white" stroke-width="1.33333" stroke-linecap="round" stroke-linejoin="round"/>
</svg>