<?xml version="1.0" encoding="UTF-8"?>
<svg width="60px" height="57px" viewBox="0 0 60 57" version="1.1" xmlns="http://www.w3.org/2000/svg" xmlns:xlink="http://www.w3.org/1999/xlink">
    <!-- Generator: Sketch 49.3 (51167) - http://www.bohemiancoding.com/sketch -->
    <title>follower-button-icon</title>
    <desc>Created with Sketch.</desc>
    <defs></defs>
    <g id="icons_superprof" stroke="none" stroke-width="1" fill="none" fill-rule="evenodd">
        <path d="M36.1,47.2555771 C44.1,48.3555771 44.0000595,56.0555771 44.0000595,56.0555771 L0,56.0555771 C0,56.0555771 1.2,48.2555771 9.3,47.2555771 C17.4,46.2555771 18,43.2555771 18,41.6555771 L18,40.6555771 C16.1,38.9555771 13.9,36.5555771 13.1,33.6555771 C10.7,33.6555771 10.1,28.6555771 10.1,27.8555771 C10.1,27.0555771 10.3,24.0555771 11.4,24.0555771 C9.8,17.6555771 11.2,11.2555771 15.6,11.2555771 C26,4.05557707 38,10.0555771 34,24.0555771 C35.1,24.3555771 35.3,27.2555771 35.3,27.9555771 C35.3,28.6555771 34.7,33.7555771 32.3,33.7555771 C31.5940701,36.4407994 30.1371116,38.8690637 28.1,40.7555771 L28.1,41.6555771 C28.1,43.2555771 28.1,46.1555771 36.1,47.2555771 Z M51.7,40.0555771 C60,41.7555771 60,48.0555771 60,48.0555771 L45.3,48.0555771 C43.1460764,45.3355034 39.9584966,43.6330459 36.5,43.3555771 C35.0046443,43.2257427 33.546498,42.8188181 32.2,42.1555771 C33.5648804,40.5498586 34.646952,38.7238629 35.4,36.7555771 C38.5,34.7555771 39.3,29.8555771 39.3,27.8555771 C39.2983666,26.2362858 38.9577258,24.6352742 38.3,23.1555771 C39.4,17.8555771 38.6,13.0555771 35.9,9.55557707 C33.7544097,6.74392515 30.5978956,4.87871227 27.1,4.35557707 C28.7506183,1.97806214 31.5089567,0.617785654 34.4,0.755577074 C34.4,0.755577074 50.4,-4.34442293 50.4,11.9555771 C50.4,25.7555771 53.5,27.1555771 56.8,30.4555771 C52.6080917,31.4741011 48.3136401,32.0109076 44,32.0555771 L44,33.6555771 C44,35.2555771 43.7,38.4555771 51.7,40.0555771 Z" id="follower-button-icon" fill="#393939" fill-rule="nonzero"></path>
    </g>
</svg>